<?xml version="1.0" standalone="no"?><!DOCTYPE svg PUBLIC "-//W3C//DTD SVG 1.1//EN" "http://www.w3.org/Graphics/SVG/1.1/DTD/svg11.dtd"><svg t="1663683671637" class="icon" viewBox="0 0 1024 1024" version="1.1" xmlns="http://www.w3.org/2000/svg" p-id="3146" width="48" height="48" xmlns:xlink="http://www.w3.org/1999/xlink"><path d="M246.144 0h531.712c85.568 0 116.608 8.96 147.904 25.6 31.36 16.768 55.872 41.344 72.576 72.64 16.768 31.296 25.664 62.336 25.664 147.84v339.84c0 85.504-8.96 116.544-25.6 147.84a174.464 174.464 0 0 1-72.64 72.576c-31.296 16.768-62.336 25.664-147.84 25.664h-531.84c-85.504 0-116.544-8.96-147.84-25.6A174.464 174.464 0 0 1 25.6 733.696C8.896 702.464 0 671.424 0 585.92v-339.84c0-85.504 8.96-116.544 25.6-147.84A174.464 174.464 0 0 1 98.304 25.6C129.536 8.896 160.576 0 246.08 0zM320 896h384a64 64 0 0 1 0 128H320a64 64 0 0 1 0-128z m541.12-448h-148.352L504.96 264.96a35.84 35.84 0 0 0-26.88-8.832 36.224 36.224 0 0 0-25.088 12.416L303.104 448h-140.16C143.552 448 128 462.336 128 480s15.616 32 34.88 32h157.568c10.88 0 21.056-4.608 27.776-12.544l136.576-163.584 189.888 167.168c6.528 5.76 15.232 8.96 24.128 8.96h162.304c19.2 0 34.88-14.336 34.88-32s-15.616-32-34.88-32z" p-id="3147" fill="#409EFF"></path></svg>